<svg xmlns="http://www.w3.org/2000/svg" viewBox="0 0 48 48"><circle cx="24" cy="24" r="23" fill="#faf6ee"/><circle cx="24" cy="24" r="21" fill="none" stroke="#c79a3b" stroke-width="1.4"/><g fill="#c79a3b"><polygon points="22.4,11.1 24.0,4.0 25.6,11.1"/><polygon points="30.3,12.6 35.8,7.8 32.9,14.5"/><polygon points="35.8,18.5 43.0,17.8 36.8,21.5"/><polygon points="36.8,26.5 43.0,30.2 35.8,29.5"/><polygon points="32.9,33.5 35.8,40.2 30.3,35.4"/><polygon points="25.6,36.9 24.0,44.0 22.4,36.9"/><polygon points="17.7,35.4 12.2,40.2 15.1,33.5"/><polygon points="12.2,29.5 5.0,30.2 11.2,26.5"/><polygon points="11.2,21.5 5.0,17.8 12.2,18.5"/><polygon points="15.1,14.5 12.2,7.8 17.7,12.6"/></g><circle cx="24" cy="24" r="9" fill="#faf6ee" stroke="#c79a3b" stroke-width="1.4"/><circle cx="24" cy="24" r="3" fill="#c79a3b"/></svg>